<?xml version="1.0" encoding="UTF-8"?>
<svg xmlns="http://www.w3.org/2000/svg" width="144" height="144" viewBox="0 0 144 144">
  <defs>
    <filter id="shadow" x="-20%" y="-20%" width="140%" height="140%">
      <feDropShadow dx="0" dy="4" stdDeviation="4" flood-color="#0f172a" flood-opacity="0.18"/>
    </filter>
  </defs>
  <g filter="url(#shadow)">
    <ellipse cx="72" cy="98" rx="34" ry="38" fill="#a78bfa"/>
    <path d="M42 88 C18 54 8 62 8 92 C18 90 28 96 38 106" fill="#7c3aed"/>
    <path d="M102 88 C126 54 136 62 136 92 C126 90 116 96 106 106" fill="#7c3aed"/>
    <ellipse cx="56" cy="92" rx="7" ry="9" fill="#1f2937"/>
    <ellipse cx="88" cy="92" rx="7" ry="9" fill="#1f2937"/>
    <circle cx="58" cy="88" r="2" fill="#fff"/>
    <circle cx="90" cy="88" r="2" fill="#fff"/>
    <ellipse cx="50" cy="108" rx="8" ry="5" fill="#f9a8d4" opacity="0.75"/>
    <ellipse cx="94" cy="108" rx="8" ry="5" fill="#f9a8d4" opacity="0.75"/>
    <path d="M64 112 Q72 118 80 112" fill="none" stroke="#1f2937" stroke-width="4" stroke-linecap="round"/>
  </g>
</svg>
