<?xml version="1.0" encoding="UTF-8"?>
<svg xmlns="http://www.w3.org/2000/svg" width="144" height="144" viewBox="0 0 144 144">
  <defs>
    <filter id="shadow" x="-20%" y="-20%" width="140%" height="140%">
      <feDropShadow dx="0" dy="4" stdDeviation="4" flood-color="#0f172a" flood-opacity="0.18"/>
    </filter>
  </defs>
  <g filter="url(#shadow)">
    <path d="M32 60 C32 38 50 24 72 24 C94 24 112 38 112 60 L112 126 C104 118 96 118 88 126 C80 118 72 118 64 126 C56 118 48 118 40 126 L32 126 Z" fill="#e0f2fe"/>
    <path d="M46 54 C58 44 66 40 82 42" fill="none" stroke="#7dd3fc" stroke-width="8" stroke-linecap="round"/>
    <ellipse cx="56" cy="92" rx="7" ry="9" fill="#1e293b"/>
    <ellipse cx="88" cy="92" rx="7" ry="9" fill="#1e293b"/>
    <circle cx="58" cy="88" r="2" fill="#fff"/>
    <circle cx="90" cy="88" r="2" fill="#fff"/>
    <ellipse cx="50" cy="108" rx="8" ry="5" fill="#c4b5fd" opacity="0.75"/>
    <ellipse cx="94" cy="108" rx="8" ry="5" fill="#c4b5fd" opacity="0.75"/>
    <path d="M64 112 Q72 118 80 112" fill="none" stroke="#1e293b" stroke-width="4" stroke-linecap="round"/>
  </g>
</svg>
