<?xml version="1.0" encoding="UTF-8"?>
<svg xmlns="http://www.w3.org/2000/svg" width="144" height="144" viewBox="0 0 144 144">
  <defs>
    <filter id="shadow" x="-20%" y="-20%" width="140%" height="140%">
      <feDropShadow dx="0" dy="4" stdDeviation="4" flood-color="#0f172a" flood-opacity="0.18"/>
    </filter>
  </defs>
  <g filter="url(#shadow)">
    <path d="M72 40 C108 40 134 62 134 100 C134 136 108 156 72 156 C36 156 10 136 10 100 C10 66 34 40 72 40 Z" fill="#6ee7b7"/>
    <path d="M34 116 C46 128 56 132 72 132 C88 132 98 128 110 116" fill="none" stroke="#10b981" stroke-width="10" stroke-linecap="round"/>
    <ellipse cx="56" cy="92" rx="7" ry="9" fill="#1f2937"/>
    <ellipse cx="88" cy="92" rx="7" ry="9" fill="#1f2937"/>
    <circle cx="58" cy="88" r="2" fill="#fff"/>
    <circle cx="90" cy="88" r="2" fill="#fff"/>
    <ellipse cx="50" cy="108" rx="8" ry="5" fill="#fda4af" opacity="0.75"/>
    <ellipse cx="94" cy="108" rx="8" ry="5" fill="#fda4af" opacity="0.75"/>
    <path d="M64 112 Q72 118 80 112" fill="none" stroke="#1f2937" stroke-width="4" stroke-linecap="round"/>
  </g>
</svg>
