<?xml version="1.0" encoding="UTF-8"?>
<svg xmlns="http://www.w3.org/2000/svg" width="144" height="144" viewBox="0 0 144 144">
  <defs>
    <filter id="shadow" x="-20%" y="-20%" width="140%" height="140%">
      <feDropShadow dx="0" dy="4" stdDeviation="4" flood-color="#0f172a" flood-opacity="0.18"/>
    </filter>
  </defs>
  <g filter="url(#shadow)">
    <path d="M34 70 C34 46 52 32 72 32 C92 32 110 46 110 70 C110 92 96 106 96 126 C90 122 84 122 78 126 C72 122 66 122 60 126 C54 122 48 122 42 126 C42 106 34 92 34 70 Z" fill="#c4b5fd"/>
    <ellipse cx="56" cy="92" rx="7" ry="9" fill="#312e81"/>
    <ellipse cx="88" cy="92" rx="7" ry="9" fill="#312e81"/>
    <circle cx="58" cy="88" r="2" fill="#fff"/>
    <circle cx="90" cy="88" r="2" fill="#fff"/>
    <ellipse cx="50" cy="108" rx="8" ry="5" fill="#f9a8d4" opacity="0.75"/>
    <ellipse cx="94" cy="108" rx="8" ry="5" fill="#f9a8d4" opacity="0.75"/>
    <path d="M64 112 Q72 118 80 112" fill="none" stroke="#312e81" stroke-width="4" stroke-linecap="round"/>
  </g>
</svg>
