<?xml version="1.0" encoding="UTF-8"?>
<svg xmlns="http://www.w3.org/2000/svg" width="144" height="144" viewBox="0 0 144 144">
  <defs>
    <filter id="shadow" x="-20%" y="-20%" width="140%" height="140%">
      <feDropShadow dx="0" dy="4" stdDeviation="4" flood-color="#0f172a" flood-opacity="0.18"/>
    </filter>
  </defs>
  <g filter="url(#shadow)">
    <path d="M30 120 C20 74 44 42 84 42 C108 42 124 58 124 82 C124 122 94 148 58 148 Z" fill="#67e8f9"/>
    <path d="M92 44 L112 22 L114 48 Z" fill="#0ea5e9"/><path d="M54 48 L42 26 L68 40 Z" fill="#0ea5e9"/>
    <ellipse cx="56" cy="92" rx="7" ry="9" fill="#082f49"/>
    <ellipse cx="88" cy="92" rx="7" ry="9" fill="#082f49"/>
    <circle cx="58" cy="88" r="2" fill="#fff"/>
    <circle cx="90" cy="88" r="2" fill="#fff"/>
    <ellipse cx="50" cy="108" rx="8" ry="5" fill="#f9a8d4" opacity="0.75"/>
    <ellipse cx="94" cy="108" rx="8" ry="5" fill="#f9a8d4" opacity="0.75"/>
    <path d="M64 112 Q72 118 80 112" fill="none" stroke="#082f49" stroke-width="4" stroke-linecap="round"/>
  </g>
</svg>
