<?xml version="1.0" encoding="UTF-8"?>
<svg xmlns="http://www.w3.org/2000/svg" width="144" height="144" viewBox="0 0 144 144">
  <defs>
    <filter id="shadow" x="-20%" y="-20%" width="140%" height="140%">
      <feDropShadow dx="0" dy="4" stdDeviation="4" flood-color="#0f172a" flood-opacity="0.18"/>
    </filter>
  </defs>
  <g filter="url(#shadow)">
    <ellipse cx="70" cy="90" rx="34" ry="42" fill="#c79252"/>
    <circle cx="96" cy="74" r="16" fill="#c79252"/>
    <path d="M89 49 C95 34 105 34 113 48 C106 45 97 45 89 49 Z" fill="#dc2626"/>
    <path d="M97 43 C102 28 112 28 119 44 C112 40 104 40 97 43 Z" fill="#ef4444"/>
    <path d="M104 54 C110 42 120 42 126 56 C119 52 111 52 104 54 Z" fill="#dc2626"/>
    <path d="M38 86 C22 72 18 78 18 98 C26 96 34 100 42 110 Z" fill="#b7793f"/>
    <path d="M92 108 C108 96 120 96 128 112 C116 110 104 112 92 120 Z" fill="#b7793f"/>
    <path d="M88 78 L112 74 L98 88 Z" fill="#facc15"/>
    <rect x="78" y="64" width="16" height="7" rx="3.5" fill="#111827" transform="rotate(-10 86 67.5)"/>
    <rect x="92" y="60" width="18" height="8" rx="4" fill="#111827" transform="rotate(10 101 64)"/>
    <path d="M92 67 L96 67" stroke="#111827" stroke-width="4" stroke-linecap="round"/>
    <circle cx="56" cy="102" r="2.5" fill="#f8e3a4"/>
    <circle cx="50" cy="88" r="2.5" fill="#f8e3a4"/>
    <circle cx="66" cy="74" r="2.5" fill="#f8e3a4"/>
    <circle cx="78" cy="112" r="2.5" fill="#f8e3a4"/>
    <circle cx="88" cy="96" r="2.5" fill="#f8e3a4"/>
    <circle cx="56" cy="118" r="2.5" fill="#f8e3a4"/>
    <circle cx="63" cy="86" r="3" fill="#111827"/>
    <circle cx="72" cy="91" r="3" fill="#111827"/>
    <circle cx="81" cy="95" r="3" fill="#111827"/>
    <circle cx="89" cy="99" r="3" fill="#111827"/>
    <path d="M90 102 L112 118" stroke="#facc15" stroke-width="4" stroke-linecap="round"/>
    <circle cx="118" cy="122" r="10" fill="#dc2626"/>
    <circle cx="118" cy="122" r="6" fill="#f8fafc"/>
    <path d="M110 124 Q118 112 126 124" fill="none" stroke="#111827" stroke-width="2"/>
    <path d="M52 132 L64 132 L61 120 L49 120 Z" fill="#dc2626"/>
    <path d="M80 136 L94 136 L92 122 L78 122 Z" fill="#dc2626"/>
    <path d="M48 120 Q56 114 64 120" fill="none" stroke="#7f1d1d" stroke-width="3" stroke-linecap="round"/>
    <path d="M78 122 Q86 116 94 122" fill="none" stroke="#7f1d1d" stroke-width="3" stroke-linecap="round"/>
    <ellipse cx="53" cy="98" rx="7" ry="5" fill="#f8b4b4" opacity="0.7"/>
    <ellipse cx="98" cy="93" rx="7" ry="5" fill="#f8b4b4" opacity="0.7"/>
  </g>
</svg>
